<svg width="150" height="98" viewBox="0 0 150 98" fill="none" xmlns="http://www.w3.org/2000/svg">
<g clip-path="url(#clip0_62_2728)">
<g clip-path="url(#clip1_62_2728)">
<path d="M0.0731812 19V23.1011H29.242V19H0.0731812ZM33.3746 19V23.1011H74.9415C74.9415 23.1011 70.6955 19 65.0722 19H33.3746ZM83.0956 19V23.1011H108.243L106.75 19H83.0956ZM126.272 19L124.78 23.1011H149.699V19H126.272ZM0.0731812 26.9756V31.0767H29.242V26.9756H0.0731812ZM33.3746 26.9815V31.0767H79.7649C79.7649 31.0767 79.2231 27.9204 78.2781 26.9815H33.3746ZM83.0956 26.9815V31.0767H111L109.619 26.9815H83.0956ZM123.287 26.9815L121.905 31.0767H149.699V26.9815H123.287ZM8.45562 34.9512V39.0576H21.0878V34.9512H8.45562ZM41.7571 34.9512V39.0576H54.3893V34.9512H41.7571ZM66.6761 34.9512V39.0576H79.3083C79.3083 39.0576 80.1103 36.8888 80.1103 34.9509H66.6761V34.9512ZM91.4781 34.9512V39.0576H113.874L112.381 34.9509H91.4781V34.9512ZM120.536 34.9512L119.037 39.0579H141.544V34.9512H120.536ZM8.45562 42.9327V47.0332H21.0878V42.9327H8.45562ZM41.7571 42.9327V47.0332H74.0224C74.0224 47.0332 76.7216 44.9288 77.5815 42.9321H41.7571V42.9327ZM91.4781 42.9327V47.0332H104.11V44.7502L104.912 47.0332H128.052L128.912 44.7502V47.0332H141.544V42.9327H117.831L116.573 46.4065L115.308 42.9327H91.4781ZM8.45562 50.9077V55.0088H21.0878V50.9077H8.45562ZM41.7571 50.9077V55.0088H77.5815C76.7213 53.0185 74.0224 50.9077 74.0224 50.9077H41.7571ZM91.4781 50.9077V55.0088H104.11V50.9077H91.4781ZM106.405 50.9077L107.933 55.0088H125.283L126.735 50.9077H106.405ZM128.912 50.9077V55.0088H141.544V50.9077H128.912ZM8.45562 58.8833V62.9844H21.0878V58.8833H8.45562ZM41.7571 58.8833V62.9844H54.3893V58.8833H41.7571ZM66.6761 58.8833V62.9844H80.1103C80.1103 61.0489 79.3083 58.8833 79.3083 58.8833H66.6761ZM91.4781 58.8833V62.9844H104.11V58.8833H91.4781ZM109.273 58.8833L110.754 62.9844H122.385L123.878 58.8833H109.273ZM128.912 58.8833V62.9844H141.544V58.8833H128.912ZM0.301474 66.8592V70.9659H29.4703V66.8589H0.301474V66.8592ZM33.3746 66.8592V70.9659H78.2781C79.2231 70.0255 79.7649 66.8589 79.7649 66.8589H33.3746V66.8592ZM83.3239 66.8592V70.9659H104.11V66.8589H83.3239V66.8592ZM112.147 66.8592L113.669 70.9659H119.587L121.016 66.8589H112.147V66.8592ZM128.912 66.8592V70.9659H149.927V66.8589H128.912V66.8592ZM0.301474 74.8404V78.9415H29.4703V74.8404H0.301474ZM33.3746 74.8404V78.9353H65.0722C70.6955 78.9353 74.9415 74.8401 74.9415 74.8401H33.3746V74.8404ZM83.3239 74.8404V78.9415H104.11V74.8404H83.3239ZM115.033 74.8404L116.497 78.9295L116.748 78.9353L118.235 74.8401H115.033V74.8404ZM128.912 74.8404V78.9415H149.927V74.8404H128.912Z" fill="#1F70C1"/>
</g>
</g>
<defs>
<clipPath id="clip0_62_2728">
<rect width="149.854" height="98" fill="white" transform="translate(0.0731812)"/>
</clipPath>
<clipPath id="clip1_62_2728">
<rect width="149.854" height="60" fill="white" transform="translate(0.0731812 19)"/>
</clipPath>
</defs>
</svg>
